<svg width="84" height="85" viewBox="0 0 84 85" fill="none" xmlns="http://www.w3.org/2000/svg">
<ellipse cx="42.0812" cy="42.5" rx="41.8736" ry="42.4545" fill="#D1A954"/>
<g clip-path="url(#clip0)">
<path d="M54.49 53.5801L47.1916 46.1804C48.5759 44.4477 49.4091 42.2449 49.4091 39.8466C49.4091 34.2869 44.9478 29.7636 39.4641 29.7636C33.9805 29.7636 29.5192 34.2869 29.5192 39.8466C29.5192 45.4064 33.9805 49.9296 39.4642 49.9296C41.8297 49.9296 44.0023 49.0847 45.7113 47.6813L53.0097 55.0809C53.2142 55.2882 53.5455 55.2882 53.75 55.0809L54.49 54.3306C54.6944 54.1233 54.6944 53.7873 54.49 53.5801ZM39.4642 47.8069C35.1347 47.8069 31.6129 44.2362 31.6129 39.8466C31.6129 35.4571 35.1347 31.8864 39.4642 31.8864C43.7936 31.8864 47.3155 35.4571 47.3155 39.8466C47.3155 44.2362 43.7936 47.8069 39.4642 47.8069Z" fill="white"/>
</g>
<defs>
<clipPath id="clip0">
<rect width="25.1242" height="25.4727" fill="white" transform="translate(29.5192 29.7636)"/>
</clipPath>
</defs>
</svg>
